<?xml version="1.0" standalone="no"?>
<!DOCTYPE svg PUBLIC "-//W3C//DTD SVG 20010904//EN"
 "http://www.w3.org/TR/2001/REC-SVG-20010904/DTD/svg10.dtd">
<svg version="1.0" xmlns="http://www.w3.org/2000/svg"
 width="1536.000000pt" height="1536.000000pt" viewBox="0 0 1536.000000 1536.000000"
 preserveAspectRatio="xMidYMid meet">
<metadata>
Created by potrace 1.14, written by Peter Selinger 2001-2017
</metadata>
<g transform="translate(0.000000,1536.000000) scale(0.100000,-0.100000)"
fill="#000000" stroke="none">
<path d="M7011 15346 c-7 -9 -11 -16 -8 -16 4 0 1 -17 -6 -37 -13 -38 -13 -64
-3 -138 3 -22 8 -71 11 -110 3 -38 7 -83 10 -100 4 -29 11 -109 21 -245 25
-338 25 -951 0 -1285 -12 -169 -18 -232 -21 -255 -2 -14 -7 -54 -11 -90 -3
-36 -8 -76 -9 -90 -6 -52 -16 -136 -21 -165 -2 -16 -6 -43 -9 -60 -10 -67 -55
-338 -60 -360 -6 -29 -17 -82 -20 -100 -2 -11 -4 -20 -5 -20 -1 0 -3 -11 -5
-25 -5 -37 -11 -67 -29 -141 -8 -37 -17 -78 -20 -90 -2 -13 -9 -44 -16 -69 -7
-25 -14 -52 -15 -60 -2 -8 -18 -67 -35 -130 -17 -63 -32 -122 -34 -130 -2 -8
-12 -42 -21 -75 -10 -33 -18 -62 -17 -65 0 -3 -6 -20 -13 -37 -8 -18 -11 -33
-8 -33 3 0 -1 -7 -8 -17 -8 -9 -13 -18 -12 -19 3 -5 2 -9 -52 -169 -25 -77
-48 -144 -49 -150 -4 -12 -11 -31 -43 -115 -14 -36 -26 -69 -27 -75 -2 -5 -10
-27 -19 -49 -9 -21 -17 -44 -17 -52 0 -7 -4 -15 -9 -18 -5 -3 -12 -17 -15 -30
-6 -26 -114 -284 -146 -351 -10 -22 -35 -76 -56 -120 -20 -44 -50 -109 -66
-145 -17 -36 -35 -68 -42 -72 -6 -4 -8 -8 -4 -8 7 0 -94 -202 -159 -320 -17
-30 -44 -80 -60 -110 -17 -30 -39 -71 -51 -90 -56 -99 -119 -205 -134 -228 -9
-15 -23 -38 -31 -52 -47 -83 -263 -436 -270 -441 -5 -3 -9 -10 -9 -15 0 -9
-97 -180 -127 -224 -10 -14 -33 -52 -52 -85 -19 -33 -38 -68 -44 -77 -5 -9
-23 -41 -39 -70 -16 -29 -43 -75 -60 -103 -17 -27 -40 -68 -51 -90 -11 -22
-22 -42 -25 -45 -6 -5 -106 -177 -155 -264 -13 -23 -88 -154 -167 -291 -79
-138 -147 -257 -151 -265 -4 -8 -16 -29 -26 -46 -45 -74 -269 -504 -272 -522
0 -4 -12 -32 -26 -62 -35 -77 -46 -104 -85 -200 -19 -47 -39 -94 -43 -105 -5
-11 -9 -22 -10 -25 -1 -3 -4 -12 -8 -20 -26 -69 -80 -224 -107 -310 -18 -58
-38 -124 -46 -147 -7 -24 -16 -57 -19 -74 -3 -18 -10 -40 -16 -50 -5 -11 -7
-19 -3 -19 3 0 1 -7 -6 -15 -7 -8 -10 -15 -7 -15 3 0 1 -16 -5 -36 -10 -38
-16 -63 -24 -104 -3 -14 -8 -34 -11 -45 -4 -11 -7 -22 -8 -25 0 -3 -5 -23 -10
-45 -5 -22 -9 -47 -10 -55 -1 -8 -5 -31 -10 -50 -5 -19 -9 -44 -10 -55 -1 -11
-4 -36 -8 -55 -17 -86 -42 -253 -53 -341 -2 -24 -7 -64 -10 -89 -23 -205 -28
-311 -27 -610 1 -310 5 -420 13 -420 3 0 6 -17 7 -38 2 -44 9 -112 18 -167 16
-99 25 -152 29 -175 8 -37 36 -163 40 -180 2 -8 7 -28 11 -45 4 -16 14 -50 22
-75 8 -25 17 -54 19 -64 2 -10 9 -35 16 -55 7 -20 12 -38 13 -41 0 -3 5 -18
12 -35 6 -16 25 -68 43 -115 38 -104 35 -96 111 -255 35 -71 63 -132 63 -135
1 -3 6 -12 11 -20 5 -8 20 -35 33 -60 47 -88 67 -125 72 -130 9 -9 51 -85 57
-102 3 -10 9 -18 14 -18 5 0 9 -5 9 -10 0 -6 22 -44 50 -86 28 -41 50 -79 50
-84 0 -5 3 -10 8 -12 4 -1 34 -43 67 -93 33 -49 67 -97 75 -106 29 -32 50 -59
50 -67 0 -5 8 -17 18 -28 9 -10 50 -59 90 -109 168 -210 399 -454 606 -640 48
-44 94 -85 101 -92 7 -7 15 -9 19 -6 3 4 6 2 6 -4 0 -9 55 -57 137 -121 13 -9
32 -25 44 -34 11 -9 46 -34 77 -55 31 -21 59 -40 62 -43 14 -15 194 -120 206
-120 8 0 14 -4 14 -8 0 -8 170 -92 267 -131 107 -43 307 -109 383 -126 224
-49 363 -45 438 13 l23 18 -107 134 c-59 74 -155 202 -214 285 -58 82 -117
166 -130 185 -14 19 -28 36 -32 38 -5 2 -8 10 -8 17 0 7 -4 15 -8 17 -4 1 -23
26 -42 53 -19 28 -37 52 -40 55 -3 3 -42 62 -87 131 -85 132 -163 272 -163
294 0 8 -4 15 -8 17 -10 4 -95 217 -101 253 -1 6 -9 20 -17 33 -8 12 -12 22
-9 22 3 0 -1 16 -9 35 -9 20 -15 36 -15 38 1 3 -21 89 -30 117 -19 56 -65 293
-77 390 -8 66 -13 483 -6 495 4 5 7 23 8 40 2 41 15 129 20 136 2 4 6 24 10
45 21 140 106 389 191 559 59 117 160 288 174 293 5 2 9 8 9 14 0 5 20 37 45
69 25 33 45 63 45 68 0 5 3 11 8 13 4 2 51 55 104 118 179 213 415 430 658
605 130 94 440 285 470 290 3 1 48 22 100 47 181 87 315 139 480 186 174 50
163 50 191 -5 13 -26 27 -49 32 -51 4 -2 7 -12 7 -22 0 -10 3 -20 8 -22 4 -1
24 -37 45 -78 39 -75 67 -128 178 -335 32 -60 85 -162 116 -225 32 -63 61
-116 66 -118 4 -2 7 -12 7 -23 0 -10 3 -19 8 -19 4 0 18 -27 32 -60 14 -33 28
-60 33 -60 4 0 7 -4 7 -9 0 -5 4 -20 9 -33 5 -13 9 -27 9 -32 0 -5 4 -12 9
-15 10 -7 27 -44 68 -146 15 -38 34 -84 41 -102 8 -17 17 -45 20 -62 4 -17 10
-31 15 -31 5 0 8 -3 7 -8 -3 -9 22 -113 31 -127 3 -5 7 -19 9 -30 5 -29 10
-50 12 -50 2 0 5 -15 13 -60 3 -16 8 -40 11 -51 2 -12 7 -37 10 -55 3 -19 8
-43 10 -55 21 -104 28 -486 12 -664 -5 -52 -10 -111 -11 -130 -2 -19 -4 -35
-4 -35 -1 0 -4 -26 -6 -58 -2 -32 -7 -77 -11 -100 -3 -23 -8 -56 -10 -74 -6
-66 -15 -118 -40 -258 -2 -11 -6 -33 -9 -50 -21 -133 -109 -456 -151 -551 -8
-17 -15 -41 -17 -52 -2 -11 -8 -26 -14 -34 -6 -7 -14 -24 -18 -38 -11 -37
-158 -334 -170 -342 -5 -4 -6 -8 -1 -8 5 0 3 -7 -4 -15 -7 -8 -25 -41 -41 -72
-30 -59 -35 -68 -76 -136 -13 -20 -21 -37 -17 -37 3 0 -3 -12 -14 -27 -11 -16
-34 -57 -53 -93 -18 -36 -38 -68 -43 -72 -6 -4 -7 -8 -2 -8 5 0 3 -6 -3 -14
-6 -7 -36 -62 -67 -122 -31 -60 -61 -114 -66 -121 -15 -19 9 -25 75 -17 34 4
73 8 87 9 14 2 32 5 40 8 8 3 42 13 75 22 33 9 67 19 75 22 8 3 17 7 20 7 13
3 166 79 170 85 3 4 20 14 38 22 17 8 32 17 32 21 0 5 6 8 13 8 6 0 65 34 130
75 66 41 123 75 127 75 5 0 10 3 12 8 2 4 46 36 98 72 52 35 100 68 105 72 6
5 37 29 70 53 72 54 61 45 165 130 47 38 90 73 96 79 6 6 37 34 69 61 79 68
337 326 405 404 30 35 62 70 70 80 29 30 145 175 205 256 33 44 62 82 65 85 3
3 10 13 15 22 6 9 44 68 86 130 41 62 86 131 99 153 13 22 27 42 30 45 3 3 19
30 34 60 16 30 32 57 35 60 8 6 13 16 128 240 91 179 166 339 166 358 0 6 4
12 9 12 4 0 8 6 8 14 0 8 16 51 35 95 19 45 34 82 34 84 0 1 5 16 11 32 7 17
13 37 15 45 2 8 20 65 40 125 21 61 38 115 40 120 1 6 9 35 19 66 9 31 19 67
22 80 9 40 12 54 14 54 2 0 7 20 15 59 3 16 13 56 21 90 22 89 29 123 39 181
3 17 7 41 10 55 3 14 8 41 10 60 3 19 7 44 10 56 2 11 7 43 10 70 3 27 8 63
12 79 3 17 6 44 8 60 1 17 6 62 10 100 4 39 8 86 10 105 20 192 26 750 10 955
-4 55 -7 115 -8 133 0 17 -3 32 -6 32 -3 0 -6 24 -6 53 -1 59 -12 170 -31 307
-4 25 -8 59 -9 75 -2 17 -4 30 -5 30 -1 0 -4 14 -6 30 -4 32 -23 153 -29 194
-3 14 -9 47 -14 75 -6 28 -13 62 -15 76 -3 14 -10 48 -15 75 -6 28 -14 66 -16
85 -3 19 -10 50 -16 68 -6 18 -12 43 -14 55 -1 12 -8 42 -14 67 -7 25 -14 52
-16 60 -2 8 -4 15 -5 15 -1 0 -3 11 -4 25 -2 14 -7 36 -11 50 -5 14 -10 27
-10 30 -1 3 -5 19 -9 35 -5 17 -22 77 -38 135 -17 58 -32 112 -33 120 -2 8 -4
16 -5 18 -2 1 -3 5 -4 10 -1 4 -7 23 -14 43 -7 20 -14 45 -17 55 -2 10 -29 93
-60 184 -31 91 -58 172 -60 180 -2 8 -36 98 -75 200 -39 102 -73 190 -74 195
-2 6 -13 32 -24 58 -12 27 -22 52 -22 56 0 4 -6 21 -14 37 -23 45 -39 88 -38
97 1 4 -3 7 -10 7 -6 0 -9 3 -6 6 6 5 -13 52 -111 267 -17 37 -31 69 -31 71 0
4 -55 122 -152 326 -25 52 -143 292 -262 533 -119 241 -216 442 -216 446 0 5
-7 14 -15 21 -9 7 -13 15 -11 18 3 3 -3 17 -14 32 -11 16 -20 32 -20 36 0 13
-74 159 -82 162 -5 2 -8 8 -8 14 0 10 -126 268 -146 300 -5 7 -9 15 -9 18 -1
12 -420 847 -433 863 -9 9 -12 17 -8 17 4 0 -2 14 -14 30 -12 17 -19 30 -16
30 5 0 -70 148 -84 165 -5 5 -9 13 -9 17 -2 13 -99 208 -110 222 -6 7 -9 15
-6 18 3 3 -1 11 -10 18 -8 7 -15 21 -15 31 0 11 -4 19 -10 19 -5 0 -9 3 -8 8
1 4 -30 70 -69 147 -39 77 -107 211 -151 298 -44 86 -77 157 -73 157 3 0 1 4
-4 8 -6 4 -93 171 -194 371 -204 407 -248 492 -262 505 -5 6 -9 18 -9 27 0 10
-4 19 -8 21 -7 3 -24 33 -108 188 -11 19 -21 37 -24 40 -3 3 -14 21 -25 42
-44 79 -89 153 -97 156 -4 2 -8 8 -8 14 0 11 -74 134 -127 210 -18 26 -33 50
-33 52 0 7 -202 304 -232 341 -5 6 -53 70 -108 143 -87 117 -214 277 -230 292
-3 3 -25 32 -50 65 -25 33 -55 68 -68 78 -12 10 -28 24 -35 31 -46 46 -189 74
-216 42z"/>
</g>
</svg>
