<?xml version="1.0" encoding="UTF-8"?><svg id="Layer_2" xmlns="http://www.w3.org/2000/svg" viewBox="0 0 275.82 136.21"><defs><style>.cls-1{font-family:RaananaBold, Raanana;font-size:99px;}.cls-1,.cls-2{fill:#000;}.cls-2{stroke-width:0px;}</style></defs><g id="Layer_1-2"><text class="cls-1" transform="translate(70.47 115.23)"><tspan x="0" y="0">להקה</tspan></text><path class="cls-2" d="M38.01,120.93c2.18-4.28,4.15-7.22,5.2-10.46,1.07-3.28,1.49-6.84,1.71-10.31.23-3.52-.55-7.01-2.06-10.23-1.48-3.16-3.2-6.2-4.79-9.26-7.91,1.82-15.81,8.3-18.56,15.27-2.09,5.3-1.39,10.59.8,15.62,1.09,2.49,2.93,4.65,4.47,6.94.59.87,1.28,1.67,2.29,2.96-1.16.26-1.83.61-2.4.5-3.69-.7-7-2.24-9.93-4.63-4.95-4.03-8.86-8.88-11.69-14.58-3.43-6.92-3.6-14.21-2.34-21.65.99-5.89,3.07-11.39,6.03-16.56,3.03-5.28,6.04-10.58,9.21-15.78,8.99-14.71,12.64-30.56,10.54-47.7-.04-.33.14-.68.22-1.04,1.61-.3,2.24.98,3.04,1.94,3.68,4.42,6.62,9.33,9.2,14.45,5.39,10.71,10.8,21.42,16.08,32.19,3.84,7.82,6.97,15.92,8.28,24.57,1.83,12.1.14,23.52-6.94,33.85-3.63,5.3-8.28,9.4-13.83,12.52-.91.51-2.05.64-4.53,1.37Z"/></g></svg>