<?xml version="1.0" encoding="UTF-8"?><svg id="Layer_2" xmlns="http://www.w3.org/2000/svg" viewBox="0 0 258.35 109.11"><defs><style>.cls-1{fill:#274a75;stroke-width:0px;}</style></defs><g id="Layer_1-2"><path class="cls-1" d="M71.61,30.07v11.6h17.26c1.87,0,3.44.19,4.71.56,1.27.37,2.26,1.23,2.97,2.59s1.06,2.82,1.06,4.4v1.89c0,10.96-3.5,20.01-10.49,27.17-5.32,5.38-14.49,9.91-27.51,13.58l9.62-16.24c4.51-.93,8.49-2.61,11.94-5.03,3.45-2.42,5.17-6.12,5.17-11.12v-1.06c0-1.06-.19-1.8-.56-2.22-.37-.42-1.14-.63-2.3-.63h-17.35c-2.77,0-4.16-1.13-4.16-3.38v-12.96c0-2.71-.79-4.43-2.37-5.17l9.72-12.47c.06.13.27.45.63.97,1.09,1.42,1.64,3.93,1.64,7.54Z"/><path class="cls-1" d="M103.13,55.55c2.13-4.96,5.24-10.71,9.33-17.26l2.42-3.24.73,6.62h20.21c5.19,0,8.7,1.23,10.54,3.67,2.13,2.32,3.19,6.33,3.19,12.04v25.48l-9.09,8.99v-28.52c0-3.19-.6-5.2-1.79-6.04-1.16-1.16-3.33-1.74-6.53-1.74h-29ZM119.85,82.86l-10.01,8.99v-20.59l10.01-10.88v22.48Z"/><path class="cls-1" d="M156.16,55.55c3.74-8.7,7.67-15.53,11.79-20.5l.68,6.62h30.45c3,0,4.87.55,5.61,1.64.71,1.03,1.11,2.9,1.21,5.61v1.88c-.16,4.9-1.3,10.31-3.43,16.24-3.84,10.09-12.6,17.85-26.3,23.3l4.25-14.74c3.71-1.06,7.02-2.99,9.96-5.78,2.93-2.79,4.4-6.6,4.4-11.43v-.53c0-1.03-.49-1.68-1.47-1.93-.98-.26-2.3-.39-3.94-.39h-33.21ZM172.88,96.59l-9.96,12.52v-36.74l9.96-12.47v36.69Z"/><path class="cls-1" d="M211.94,55.55c2.13-4.96,5.24-10.71,9.33-17.26l2.42-3.24.73,6.62h20.21c5.19,0,8.7,1.23,10.54,3.67,2.13,2.32,3.19,6.33,3.19,12.04v25.48l-9.09,8.99v-28.52c0-3.19-.6-5.2-1.79-6.04-1.16-1.16-3.33-1.74-6.53-1.74h-29ZM228.67,82.86l-10.01,8.99v-20.59l10.01-10.88v22.48Z"/><path class="cls-1" d="M29.99,95.42c1.72-3.38,3.28-5.7,4.11-8.25.84-2.59,1.17-5.4,1.35-8.13.18-2.78-.43-5.53-1.62-8.07-1.17-2.49-2.52-4.89-3.78-7.3-6.24,1.44-12.47,6.55-14.64,12.05-1.65,4.18-1.1,8.36.63,12.33.86,1.96,2.31,3.67,3.53,5.48.46.69,1.01,1.32,1.81,2.34-.92.21-1.44.49-1.9.4-2.91-.55-5.52-1.77-7.84-3.65-3.91-3.18-6.99-7.01-9.22-11.51-2.7-5.46-2.84-11.21-1.85-17.08.78-4.65,2.42-8.99,4.76-13.06,2.39-4.17,4.76-8.35,7.27-12.45C19.68,26.89,22.56,14.38,20.9.85c-.03-.26.11-.54.17-.82,1.27-.24,1.77.77,2.4,1.53,2.9,3.49,5.23,7.36,7.26,11.4,4.26,8.45,8.52,16.9,12.69,25.4,3.03,6.17,5.5,12.56,6.53,19.39,1.45,9.54.11,18.55-5.48,26.71-2.87,4.18-6.53,7.41-10.91,9.88-.72.41-1.62.5-3.57,1.08Z"/></g></svg>