<?xml version="1.0" encoding="UTF-8"?><svg id="Layer_2" xmlns="http://www.w3.org/2000/svg" viewBox="0 0 271.85 134.85"><defs><style>.cls-1{fill:#274a75;stroke-width:0px;}</style></defs><g id="Layer_1-2"><path class="cls-1" d="M85.11,55.82v11.6h17.26c1.87,0,3.44.19,4.71.56,1.27.37,2.26,1.23,2.97,2.59s1.06,2.82,1.06,4.4v1.89c0,10.96-3.5,20.01-10.49,27.17-5.32,5.38-14.49,9.91-27.51,13.58l9.62-16.24c4.51-.93,8.49-2.61,11.94-5.03,3.45-2.42,5.17-6.12,5.17-11.12v-1.06c0-1.06-.19-1.8-.56-2.22-.37-.42-1.14-.63-2.3-.63h-17.35c-2.77,0-4.16-1.13-4.16-3.38v-12.96c0-2.71-.79-4.43-2.37-5.17l9.72-12.47c.06.13.27.45.63.97,1.09,1.42,1.64,3.93,1.64,7.54Z"/><path class="cls-1" d="M116.63,81.29c2.13-4.96,5.24-10.71,9.33-17.26l2.42-3.24.73,6.62h20.21c5.19,0,8.7,1.23,10.54,3.67,2.13,2.32,3.19,6.33,3.19,12.04v25.48l-9.09,8.99v-28.52c0-3.19-.6-5.2-1.79-6.04-1.16-1.16-3.33-1.74-6.53-1.74h-29ZM133.36,108.6l-10.01,8.99v-20.59l10.01-10.88v22.48Z"/><path class="cls-1" d="M169.66,81.29c3.74-8.7,7.67-15.53,11.79-20.5l.68,6.62h30.45c3,0,4.87.55,5.61,1.64.71,1.03,1.11,2.9,1.21,5.61v1.88c-.16,4.9-1.3,10.31-3.43,16.24-3.84,10.09-12.6,17.85-26.3,23.3l4.25-14.74c3.71-1.06,7.02-2.99,9.96-5.78,2.93-2.79,4.4-6.6,4.4-11.43v-.53c0-1.03-.49-1.68-1.47-1.93-.98-.26-2.3-.39-3.94-.39h-33.21ZM186.39,122.33l-9.96,12.52v-36.74l9.96-12.47v36.69Z"/><path class="cls-1" d="M225.45,81.29c2.13-4.96,5.24-10.71,9.33-17.26l2.42-3.24.73,6.62h20.21c5.19,0,8.7,1.23,10.54,3.67,2.13,2.32,3.19,6.33,3.19,12.04v25.48l-9.09,8.99v-28.52c0-3.19-.6-5.2-1.79-6.04-1.16-1.16-3.33-1.74-6.53-1.74h-29ZM242.17,108.6l-10.01,8.99v-20.59l10.01-10.88v22.48Z"/><path class="cls-1" d="M38.01,120.93c2.18-4.28,4.15-7.22,5.2-10.46,1.07-3.28,1.49-6.84,1.71-10.31.23-3.52-.55-7.01-2.06-10.23-1.48-3.16-3.2-6.2-4.79-9.26-7.91,1.82-15.81,8.3-18.56,15.27-2.09,5.3-1.39,10.59.8,15.62,1.09,2.49,2.93,4.65,4.47,6.94.59.87,1.28,1.67,2.29,2.96-1.16.26-1.83.61-2.4.5-3.69-.7-7-2.24-9.93-4.63-4.95-4.03-8.86-8.88-11.69-14.58-3.43-6.92-3.6-14.21-2.34-21.65.99-5.89,3.07-11.39,6.03-16.56,3.03-5.28,6.04-10.58,9.21-15.78,8.99-14.71,12.64-30.56,10.54-47.7-.04-.33.14-.68.22-1.04,1.61-.3,2.24.98,3.04,1.94,3.68,4.42,6.62,9.33,9.2,14.45,5.39,10.71,10.8,21.42,16.08,32.19,3.84,7.82,6.97,15.92,8.28,24.57,1.83,12.1.14,23.52-6.94,33.85-3.63,5.3-8.28,9.4-13.83,12.52-.91.51-2.05.64-4.53,1.37Z"/></g></svg>