<?xml version="1.0" encoding="UTF-8"?><svg id="Layer_2" xmlns="http://www.w3.org/2000/svg" viewBox="0 0 50.5 96.27"><defs><style>.cls-1{fill:#274a75;stroke-width:0px;}</style></defs><g id="Layer_1-2"><path class="cls-1" d="M30.13,95.4c-.06,0-.11-.06-.08-.11,1.7-3.31,3.22-5.61,4.04-8.13.84-2.59,1.17-5.4,1.35-8.13.18-2.78-.43-5.53-1.62-8.07-1.17-2.49-2.52-4.89-3.78-7.3-6.24,1.44-12.47,6.55-14.64,12.05-1.65,4.18-1.1,8.36.63,12.33.86,1.96,2.31,3.67,3.53,5.48.46.69,1.01,1.32,1.81,2.34-.37.41-1.44.49-1.9.4-2.91-.55-5.52-1.77-7.84-3.65-3.91-3.18-6.99-7.01-9.22-11.51-2.7-5.46-2.84-11.21-1.85-17.08.78-4.65,2.42-8.99,4.76-13.06,2.39-4.17,4.76-8.35,7.27-12.45C19.68,26.89,22.56,14.38,20.9.85c-.03-.26.11-.54.17-.82,1.27-.24,1.77.77,2.4,1.53,2.9,3.49,5.23,7.36,7.26,11.4,4.26,8.45,8.52,16.9,12.69,25.4,3.03,6.17,5.5,12.56,6.53,19.39,1.45,9.54.11,18.55-5.48,26.71-2.87,4.18-6.53,7.41-10.91,9.88-.7.4-1.53.9-3.43,1.07Z"/></g></svg>